<svg width="89" height="88" viewBox="0 0 89 88" fill="none" xmlns="http://www.w3.org/2000/svg">
<path d="M41.1141 14.6952C42.8653 14.6952 44.4141 16.4154 44.4141 18.3604C44.4141 20.3836 42.9357 22.0257 41.1141 22.0257C34.4921 22.0257 7.01406 22.0257 7.01406 22.0257V80.6695H81.8141V37.9084C81.8141 35.8852 83.2925 34.2431 85.1141 34.2431C86.9357 34.2431 88.4141 35.8852 88.4141 37.9084V83.113C88.4141 86.1478 86.1173 88 84.0141 88H4.81406C2.70206 88 0.414062 86.1478 0.414062 83.113V19.5822C0.414062 17.2315 2.08606 14.6952 4.81406 14.6952H41.1141ZM32.2657 46.5877C27.6677 61.2633 26.8185 63.4478 26.8185 65.3537C26.8185 67.5089 28.5125 68.413 29.5773 68.413C30.7741 68.413 34.4525 66.942 46.4249 62.3091L32.2657 46.5877ZM36.1729 42.2431L50.3409 57.9792L87.3361 16.9285C88.0533 16.1319 88.4141 15.0861 88.4141 14.0354C88.4141 12.9945 88.0533 11.9487 87.3361 11.1472C84.7841 8.32254 80.9209 4.02688 78.3645 1.19731C77.6473 0.400732 76.7057 0 75.7641 0C74.8269 0 73.8809 0.400732 73.1593 1.19731L36.1729 42.2431Z" fill="black"/>
</svg>
