<svg width="161" height="20" viewBox="0 0 161 20" fill="none" xmlns="http://www.w3.org/2000/svg">
<path d="M16.458 14.3083C16.5253 14.173 16.5926 14.0411 16.663 13.9091C17.278 12.7424 18.0042 11.6783 19.1811 11.0118L19.1999 11.0021L19.2359 10.9809L19.3392 10.9239L19.239 10.8978L19.1874 10.8847H19.1733H19.1561C18.4639 10.705 17.7387 10.717 17.0523 10.9193C16.366 11.1217 15.7424 11.5075 15.2435 12.0384C14.461 12.9004 13.7505 13.8504 13.0416 14.789C10.6721 17.9306 6.40593 17.7889 4.34638 14.4859C2.86744 12.115 3.88783 8.98639 6.43097 8.17653C7.94433 7.68769 9.36066 8.01359 10.6565 8.94403C10.9695 9.17215 11.2668 9.43287 11.5705 9.69033C12.0373 8.82988 12.5575 8.00198 13.1276 7.21188C13.0967 7.192 13.0669 7.17024 13.0384 7.14671C11.0853 5.51722 8.86925 4.8198 6.39028 5.19133C1.92374 5.86104 -1.01534 10.5686 1.32434 15.2013C2.76885 18.0643 5.15549 19.5846 8.21038 19.9414C10.4436 20.2038 12.475 19.6465 14.1574 18.0105C14.4616 17.7117 14.7387 17.3844 14.9853 17.0328C15.1074 16.8568 15.2247 16.6759 15.3359 16.4918L15.4188 16.3517L15.5096 16.1887C15.5331 16.1464 15.5565 16.1056 15.5784 16.0632C15.6583 15.9215 15.7349 15.7765 15.8101 15.6331C15.8852 15.4897 15.9666 15.3365 16.0354 15.1882C16.1043 15.0399 16.1747 14.9063 16.2436 14.7662L16.458 14.3083Z" fill="#0A85C2"/>
<path d="M28.0729 10.7817C27.3886 9.07868 26.2325 7.62657 24.752 6.61076C23.2716 5.59494 21.534 5.06149 19.7611 5.07852C17.7266 5.07852 15.9065 5.68469 14.5496 7.26529C14.4776 7.35002 14.4056 7.43802 14.3352 7.52764C13.6012 8.476 13.0112 9.55309 12.4165 10.6106C12.3915 10.6546 12.3664 10.6986 12.343 10.7426C11.7295 11.8441 11.1457 12.9571 10.2005 13.8044C10.1785 13.8223 10.044 13.9462 9.91406 14.0423L10.0361 14.0537C11.089 14.1344 12.1371 13.8415 13.0097 13.2227C14.1427 12.4242 14.9346 11.2755 15.8173 10.2228C16.4433 9.47161 17.1084 8.75627 18.0083 8.34238C20.6328 7.11212 24.0226 8.48414 25.1291 11.2575C25.73 12.7632 25.7238 14.2672 24.7128 15.592C23.7331 16.876 22.3856 17.2003 20.8754 16.933C19.7501 16.7326 18.8284 16.1183 17.9629 15.3818C17.8064 15.253 17.6499 15.1292 17.4824 14.9874L17.4167 15.121C17.0387 15.9399 16.5997 16.7266 16.1037 17.474C16.1116 17.4887 16.1205 17.5029 16.1303 17.5164C16.1887 17.596 16.2536 17.6701 16.3243 17.738C16.3791 17.7934 16.4339 17.8488 16.4918 17.9009C16.5497 17.9531 16.6076 17.9971 16.6671 18.0411C16.7829 18.1307 16.9018 18.2171 17.0223 18.3018C17.1428 18.3865 17.2618 18.4647 17.3838 18.5479C17.5059 18.631 17.6296 18.7108 17.7548 18.7776C17.88 18.8444 18.0052 18.9226 18.1319 18.9911C18.2587 19.0595 18.3886 19.1231 18.5185 19.1833C18.6484 19.2436 18.7814 19.3039 18.9129 19.3577C19.0443 19.4115 19.182 19.4636 19.3166 19.5109C19.4512 19.5581 19.5905 19.6021 19.7298 19.6429C19.8691 19.6836 20.0099 19.7178 20.1508 19.7504C21.913 20.1496 23.658 20.0535 25.2746 19.1556C28.2309 17.5001 29.3796 14.0211 28.0729 10.7817Z" fill="black"/>
<path d="M50.2834 19.2863C50.1379 19.3237 49.9266 19.371 49.6465 19.428C49.3476 19.4858 49.0443 19.5141 48.7403 19.5128C48.0893 19.5128 47.6167 19.3905 47.3177 19.1461C47.0188 18.9017 46.8717 18.4699 46.8717 17.8425V10.5115C46.8717 9.76084 46.673 9.21767 46.2754 8.882C45.8779 8.54633 45.3563 8.37686 44.7104 8.3736C44.2787 8.37328 43.851 8.45958 43.4506 8.6278C43.0597 8.7877 42.6981 9.01645 42.3817 9.30404C42.4351 9.56383 42.4623 9.82868 42.4631 10.0943V19.2846C42.3175 19.3221 42.1063 19.3694 41.8261 19.4264C41.5268 19.4842 41.2229 19.5126 40.9184 19.5111C40.2684 19.5111 39.7947 19.3889 39.4974 19.1445C39.2 18.9001 39.0514 18.4655 39.0514 17.8409V10.5115C39.0514 9.76084 38.8427 9.21767 38.4254 8.882C37.9639 8.52801 37.4002 8.34865 36.8275 8.3736C36.4003 8.36839 35.9759 8.44518 35.5755 8.6001C35.2486 8.72485 34.9316 8.87575 34.6271 9.05146V19.2846C34.4706 19.3221 34.2484 19.3694 33.9776 19.4264C33.6742 19.4854 33.366 19.5138 33.0574 19.5111C32.4251 19.5111 31.9556 19.3889 31.6489 19.1445C31.3421 18.9001 31.1888 18.4655 31.1888 17.8409V8.7989C31.1753 8.41739 31.2694 8.04013 31.4595 7.71366C31.6819 7.37966 31.9673 7.09634 32.2984 6.88099C32.9351 6.46095 33.6288 6.14291 34.3563 5.93752C35.192 5.68259 36.0585 5.55418 36.9292 5.55623C38.5714 5.55623 39.9074 6.01682 40.9372 6.93803C41.4919 6.52634 42.0972 6.19421 42.737 5.95056C43.5068 5.67215 44.3182 5.53863 45.133 5.55623C45.8098 5.5525 46.484 5.64292 47.1378 5.82508C47.7366 5.98616 48.2953 6.27899 48.7763 6.68383C49.2471 7.09338 49.6218 7.60947 49.8718 8.19273C50.1579 8.88181 50.2968 9.62739 50.2787 10.3779L50.2834 19.2863Z" fill="black"/>
<path d="M57.1598 19.285C57.0033 19.3225 56.7795 19.3698 56.5087 19.4268C56.2053 19.4858 55.8972 19.5142 55.5885 19.5115C54.9563 19.5115 54.4868 19.3893 54.18 19.1449C53.8733 18.9005 53.7199 18.4659 53.7199 17.8413V8.9101C53.7059 8.47205 53.8194 8.03983 54.0454 7.67007C54.2938 7.30064 54.617 6.99248 54.9923 6.76733C55.6387 6.37326 56.3367 6.07905 57.0643 5.89392C57.9334 5.66185 58.8277 5.54794 59.7248 5.555C61.4401 5.555 62.2977 6.10956 62.2977 7.21869C62.2991 7.4735 62.2578 7.72661 62.1756 7.96663C62.1092 8.16752 62.0232 8.3608 61.919 8.54347C61.4101 8.44141 60.8925 8.39445 60.3743 8.40333C59.7724 8.39961 59.1724 8.47517 58.5886 8.6282C58.0899 8.75417 57.6079 8.94352 57.1535 9.192L57.1598 19.285Z" fill="black"/>
<path d="M68.4438 16.4651C68.7959 16.729 69.2873 16.8594 69.9196 16.8594C70.2356 16.8588 70.5506 16.8211 70.8586 16.747C71.1503 16.6794 71.4358 16.5851 71.7115 16.4651C71.8619 16.6255 71.9851 16.8111 72.0762 17.0142C72.1821 17.2479 72.2356 17.5037 72.2327 17.7621C72.233 18.0398 72.1662 18.3131 72.0384 18.5568C71.9107 18.8006 71.7262 19.0069 71.5018 19.157C71.0146 19.5241 70.2294 19.7077 69.1465 19.7077C67.7192 19.7077 66.5955 19.3742 65.7754 18.7072C64.9554 18.0402 64.5406 16.9371 64.5312 15.3977V2.45312C64.6752 2.41564 64.8865 2.36839 65.1666 2.31135C65.466 2.25352 65.7699 2.22514 66.0743 2.22662C66.7003 2.22662 67.1699 2.35046 67.4688 2.59325C67.7677 2.83604 67.9148 3.27112 67.9148 3.89684V6.23679H71.8962C72.0003 6.42329 72.0818 6.62251 72.1388 6.82991C72.2129 7.08563 72.2498 7.35148 72.2483 7.61859C72.2483 8.10743 72.1388 8.46429 71.9228 8.69079C71.8078 8.80534 71.6717 8.89432 71.5226 8.95231C71.3736 9.0103 71.2147 9.03608 71.0558 9.02809H67.9164V15.1745C67.9164 15.7693 68.0916 16.2027 68.4438 16.4651Z" fill="black"/>
<path d="M82.7472 8.93484C82.3058 8.56006 81.7059 8.37213 80.9474 8.37104C80.4578 8.36644 79.97 8.43335 79.4982 8.56983C79.0943 8.68313 78.7073 8.85364 78.3479 9.0766V19.2821C78.1914 19.3195 77.9676 19.3668 77.6969 19.4238C77.3935 19.4829 77.0853 19.5113 76.7767 19.5086C76.1444 19.5086 75.6749 19.3864 75.3682 19.1419C75.0614 18.8975 74.908 18.463 74.908 17.8383V8.7947C74.8918 8.40826 74.986 8.02548 75.1788 7.6948C75.4051 7.3687 75.6907 7.0919 76.0192 6.88006C76.6603 6.44981 77.3643 6.13115 78.1038 5.93659C79.0392 5.67306 80.005 5.54475 80.974 5.55529C82.8332 5.55529 84.2731 5.98275 85.2934 6.83769C86.3138 7.69263 86.8235 8.94734 86.8225 10.6018V19.2853C86.6785 19.3228 86.4656 19.3701 86.1871 19.4271C85.8877 19.4849 85.5838 19.5133 85.2794 19.5118C84.6294 19.5118 84.1557 19.3896 83.8583 19.1452C83.561 18.9008 83.4139 18.4657 83.417 17.84V10.711C83.417 9.90384 83.1937 9.31179 82.7472 8.93484Z" fill="black"/>
<path d="M90.1177 1.97487C90.1136 1.71491 90.1608 1.45684 90.2564 1.21664C90.3519 0.976434 90.4938 0.759202 90.6733 0.578399C90.8599 0.386525 91.0822 0.236387 91.3266 0.137193C91.5709 0.0379991 91.8322 -0.00815345 92.0943 0.00156492C92.3547 -0.00928688 92.6144 0.0363926 92.8568 0.135701C93.0993 0.23501 93.3193 0.38577 93.5028 0.578399C93.6787 0.761282 93.8175 0.979181 93.9108 1.2191C94.0041 1.45903 94.05 1.71606 94.0459 1.97487C94.0521 2.24204 94.0056 2.5077 93.9093 2.75544C93.813 3.00318 93.669 3.22774 93.4861 3.41526C93.3032 3.60278 93.0854 3.74927 92.846 3.84569C92.6066 3.94212 92.3508 3.98643 92.0943 3.97588C91.832 3.98568 91.5706 3.9394 91.3262 3.83991C91.0818 3.74041 90.8596 3.58981 90.6733 3.39741C90.492 3.21258 90.3491 2.99094 90.2536 2.74623C90.158 2.50152 90.1117 2.23897 90.1177 1.97487ZM90.3884 6.06325C90.5324 6.02577 90.7453 5.97852 91.0238 5.92149C91.3231 5.86289 91.6271 5.83451 91.9315 5.83675C92.5805 5.83675 93.0547 5.95896 93.3541 6.20339C93.6536 6.44781 93.8023 6.88234 93.8002 7.50697V19.2914C93.6546 19.3289 93.4433 19.3761 93.1632 19.4332C92.8644 19.4909 92.561 19.5193 92.2571 19.5179C91.606 19.5179 91.1334 19.3957 90.8345 19.1513C90.5356 18.9069 90.3884 18.475 90.3884 17.8477V6.06325Z" fill="black"/>
<path d="M103.977 8.40322C103.464 8.39832 102.954 8.49394 102.475 8.68512C102.026 8.86414 101.62 9.14207 101.284 9.49986C100.935 9.88185 100.663 10.3329 100.484 10.8263C100.276 11.412 100.175 12.0333 100.187 12.6578C100.187 14.0494 100.539 15.0977 101.243 15.8027C101.947 16.5077 102.859 16.8619 103.977 16.8651C104.534 16.8784 105.089 16.7879 105.616 16.5979C106.04 16.4364 106.452 16.2431 106.849 16.0194C107.089 16.1955 107.296 16.4165 107.458 16.6712C107.613 16.9232 107.693 17.2175 107.688 17.5169C107.688 18.1568 107.327 18.6831 106.605 19.0959C105.883 19.5087 104.908 19.7156 103.68 19.7167C102.721 19.727 101.766 19.5796 100.85 19.28C100.031 19.0113 99.2777 18.5591 98.6437 17.9553C98.0146 17.3391 97.5286 16.5818 97.2227 15.7408C96.871 14.7584 96.7005 13.7158 96.7203 12.6676C96.6995 11.6017 96.8842 10.5423 97.2634 9.552C97.5937 8.70331 98.0985 7.94022 98.7423 7.31636C99.3721 6.72096 100.115 6.26966 100.922 5.99158C101.78 5.69607 102.679 5.54856 103.583 5.55488C104.793 5.55488 105.759 5.77594 106.48 6.21807C107.201 6.66021 107.562 7.20337 107.564 7.84756C107.566 8.13699 107.485 8.42047 107.333 8.6623C107.193 8.89198 107.014 9.09303 106.805 9.25544C106.416 9.03526 106.014 8.84202 105.6 8.67697C105.08 8.48257 104.53 8.38977 103.977 8.40322Z" fill="black"/>
<path d="M115.458 5.55469C117.231 5.55469 118.644 5.94956 119.696 6.73932C120.747 7.52907 121.275 8.75064 121.278 10.404V16.922C121.298 17.3081 121.182 17.6887 120.952 17.9925C120.719 18.2704 120.445 18.5085 120.14 18.6981C119.541 19.0553 118.892 19.3121 118.217 19.4591C117.343 19.6578 116.45 19.7523 115.556 19.741C113.75 19.741 112.329 19.3792 111.292 18.6557C110.254 17.9323 109.733 16.8459 109.727 15.3968C109.727 14.1366 110.11 13.1731 110.877 12.5061C111.644 11.8391 112.763 11.4301 114.235 11.2791L117.944 10.8831V10.3763C117.944 9.66261 117.697 9.13629 117.201 8.79736C116.705 8.45842 116.006 8.28896 115.102 8.28896C114.41 8.28691 113.72 8.37616 113.049 8.55457C112.434 8.71468 111.835 8.93737 111.262 9.2194C111.054 9.05857 110.883 8.85149 110.761 8.61322C110.625 8.3594 110.555 8.07293 110.558 7.78219C110.543 7.45568 110.633 7.13337 110.814 6.86642C111.039 6.59061 111.321 6.37302 111.641 6.23092C112.216 5.99086 112.815 5.82081 113.428 5.72415C114.099 5.61111 114.778 5.55445 115.458 5.55469ZM115.567 17.0295C116.05 17.0318 116.531 16.9772 117.002 16.8666C117.339 16.8044 117.66 16.6749 117.949 16.4853V13.3567L115.331 13.619C114.61 13.694 114.06 13.8569 113.68 14.1079C113.3 14.3588 113.11 14.7586 113.11 15.3072C113.099 15.552 113.147 15.7959 113.248 16.0171C113.35 16.2383 113.502 16.4299 113.692 16.5749C114.075 16.8769 114.7 17.0279 115.567 17.0279V17.0295Z" fill="black"/>
<path d="M123.446 18.1524C123.435 17.732 123.58 17.3233 123.851 17.0118C123.994 16.8552 124.168 16.7327 124.36 16.6528C124.553 16.5729 124.76 16.5375 124.967 16.549C125.171 16.5389 125.375 16.575 125.564 16.6549C125.753 16.7348 125.923 16.8566 126.063 17.0118C126.334 17.3233 126.479 17.732 126.468 18.1524C126.478 18.5667 126.332 18.9686 126.063 19.2735C125.923 19.4287 125.753 19.5504 125.564 19.6303C125.375 19.7102 125.171 19.7464 124.967 19.7363C124.76 19.7477 124.553 19.7123 124.36 19.6324C124.168 19.5525 123.994 19.4301 123.851 19.2735C123.582 18.9682 123.437 18.5665 123.446 18.1524Z" fill="#0A85C2"/>
<path d="M132.392 12.0141C132.042 12.011 131.694 12.0763 131.367 12.2064C131.061 12.33 130.784 12.52 130.555 12.7636C130.317 13.0235 130.132 13.3305 130.011 13.6664C129.869 14.0659 129.8 14.49 129.808 14.9162C129.808 15.8635 130.048 16.5772 130.528 17.0573C131.008 17.5375 131.629 17.7776 132.392 17.7776C132.771 17.7864 133.149 17.7246 133.508 17.5951C133.796 17.4856 134.076 17.3544 134.347 17.2024C134.511 17.3207 134.652 17.4705 134.763 17.6439C134.868 17.8161 134.923 18.0167 134.919 18.2208C134.919 18.6553 134.673 19.0138 134.181 19.2962C133.688 19.5787 133.024 19.7194 132.188 19.7183C131.535 19.7255 130.884 19.6254 130.26 19.4217C129.701 19.2387 129.188 18.9299 128.756 18.5174C128.327 18.0986 127.996 17.583 127.788 17.0101C127.548 16.3407 127.433 15.6303 127.446 14.9162C127.432 14.1916 127.557 13.4714 127.814 12.7979C128.033 12.2287 128.37 11.7166 128.801 11.2982C129.231 10.8797 129.745 10.565 130.306 10.3764C130.889 10.1748 131.5 10.0741 132.115 10.0783C132.938 10.0783 133.596 10.2287 134.088 10.5296C134.581 10.8305 134.827 11.1988 134.827 11.6344C134.829 11.8322 134.774 12.026 134.67 12.1917C134.575 12.3477 134.453 12.4846 134.311 12.5958C134.045 12.4453 133.771 12.3135 133.489 12.2015C133.137 12.0691 132.765 12.0056 132.392 12.0141Z" fill="#0A85C2"/>
<path d="M145.153 14.8949C145.162 15.5788 145.053 16.2588 144.83 16.9024C144.63 17.4717 144.319 17.9916 143.916 18.4292C143.517 18.8594 143.032 19.1932 142.495 19.4069C141.29 19.8545 139.973 19.8545 138.767 19.4069C138.234 19.1953 137.749 18.8676 137.346 18.4455C136.943 18.0126 136.632 17.4955 136.434 16.9285C136.209 16.2788 136.099 15.5919 136.11 14.9014C136.1 14.2173 136.21 13.5371 136.434 12.8939C136.633 12.3245 136.947 11.8065 137.356 11.3752C137.763 10.9545 138.25 10.6271 138.786 10.4138C139.979 9.96624 141.284 9.96624 142.477 10.4138C143.015 10.629 143.503 10.9625 143.907 11.3915C144.315 11.8268 144.63 12.3472 144.83 12.9183C145.05 13.5518 145.16 14.2213 145.153 14.8949ZM140.631 11.9928C140.331 11.9807 140.033 12.0433 139.761 12.1754C139.489 12.3074 139.251 12.5051 139.066 12.7521C138.685 13.2583 138.494 13.9726 138.495 14.8949C138.496 15.8172 138.683 16.5341 139.057 17.0458C139.253 17.2818 139.496 17.471 139.769 17.6003C140.041 17.7297 140.338 17.7962 140.637 17.7952C140.937 17.7943 141.233 17.726 141.505 17.595C141.777 17.4639 142.019 17.2733 142.214 17.036C142.588 16.5309 142.775 15.8172 142.775 14.8949C142.775 13.9726 142.585 13.2583 142.204 12.7521C142.019 12.504 141.78 12.3056 141.506 12.1735C141.233 12.0414 140.933 11.9794 140.631 11.9928Z" fill="#0A85C2"/>
<path d="M160.07 19.4288C159.972 19.4532 159.826 19.4858 159.635 19.5233C159.429 19.5642 159.219 19.5839 159.009 19.582C158.567 19.582 158.244 19.4989 158.04 19.3327C157.837 19.1665 157.736 18.8715 157.737 18.4478V13.4518C157.737 12.9402 157.601 12.5692 157.33 12.3389C157.024 12.0951 156.644 11.9721 156.259 11.9918C155.966 11.9922 155.675 12.0509 155.402 12.1645C155.135 12.2737 154.888 12.4297 154.672 12.6257C154.71 12.8023 154.728 12.9826 154.729 13.1634V19.4288C154.63 19.4532 154.485 19.4858 154.295 19.5233C154.089 19.5642 153.879 19.5838 153.669 19.582C153.226 19.582 152.902 19.4989 152.701 19.3327C152.499 19.1665 152.395 18.8715 152.395 18.4478V13.4518C152.395 12.9402 152.254 12.5692 151.971 12.3389C151.655 12.0957 151.268 11.9732 150.876 11.9918C150.586 11.9889 150.299 12.0413 150.028 12.1466C149.805 12.2316 149.589 12.334 149.381 12.453V19.4288C149.27 19.4532 149.123 19.4858 148.938 19.5233C148.732 19.5644 148.522 19.5841 148.312 19.582C147.882 19.582 147.563 19.4989 147.353 19.3327C147.143 19.1697 147.04 18.8715 147.04 18.4478V12.2802C147.031 12.0202 147.095 11.763 147.225 11.5405C147.376 11.313 147.57 11.1201 147.796 10.9734C148.231 10.6838 148.706 10.4641 149.204 10.3216C149.774 10.1484 150.364 10.0612 150.957 10.0625C152.078 10.0625 152.988 10.3765 153.688 11.0044C154.073 10.7272 154.492 10.5057 154.934 10.346C155.458 10.1559 156.011 10.0648 156.566 10.0772C157.027 10.0752 157.487 10.1366 157.932 10.2597C158.34 10.3699 158.721 10.5699 159.048 10.8463C159.369 11.1254 159.625 11.477 159.796 11.8745C159.99 12.3438 160.085 12.8513 160.073 13.3622L160.07 19.4288Z" fill="#0A85C2"/>
</svg>
