<svg width="208" height="25" viewBox="0 0 208 25" fill="none" xmlns="http://www.w3.org/2000/svg">
<path d="M20.7706 17.8779C20.8582 17.7089 20.9457 17.5439 21.0374 17.3789C21.8379 15.9205 22.7831 14.5903 24.3149 13.7572L24.3394 13.745L24.3862 13.7185L24.5207 13.6472L24.3903 13.6146L24.3231 13.5984H24.3047H24.2823C23.3814 13.3737 22.4375 13.3886 21.5441 13.6416C20.6508 13.8946 19.8392 14.3769 19.1899 15.0405C18.1714 16.118 17.2466 17.3056 16.3238 18.4788C13.2398 22.406 7.68703 22.2288 5.00636 18.1C3.08141 15.1362 4.40952 11.2253 7.71962 10.213C9.68938 9.60191 11.5329 10.0093 13.2195 11.1724C13.6269 11.4575 14.0139 11.7835 14.4091 12.1053C15.0167 11.0297 15.6938 9.99478 16.4359 9.00713C16.3956 8.98228 16.3568 8.95508 16.3198 8.92566C13.7776 6.88873 10.8932 6.01693 7.66666 6.48135C1.85311 7.31852 -1.97234 13.2032 1.07295 18.9942C2.95308 22.573 6.05948 24.4735 10.0357 24.9196C12.9424 25.2475 15.5864 24.5509 17.7762 22.5058C18.1721 22.1323 18.5328 21.7232 18.8538 21.2837C19.0127 21.0637 19.1654 20.8376 19.31 20.6074L19.418 20.4322L19.5362 20.2285C19.5667 20.1756 19.5973 20.1247 19.6258 20.0717C19.7297 19.8945 19.8295 19.7132 19.9273 19.534C20.025 19.3547 20.131 19.1632 20.2206 18.9779C20.3102 18.7925 20.4019 18.6255 20.4915 18.4503L20.7706 17.8779Z" fill="#0A85C2"/>
<path d="M35.8851 13.4735C34.9945 11.3446 33.4897 9.52942 31.5628 8.2596C29.6359 6.98979 27.3743 6.32296 25.0667 6.34424C22.4186 6.34424 20.0496 7.10198 18.2835 9.07779C18.1898 9.18371 18.0961 9.29372 18.0045 9.40575C17.0491 10.5912 16.2812 11.9376 15.5071 13.2596C15.4745 13.3146 15.442 13.3696 15.4114 13.4246C14.6129 14.8016 13.8531 16.1928 12.6228 17.252C12.5943 17.2744 12.4191 17.4292 12.25 17.5494L12.4089 17.5636C13.7793 17.6644 15.1434 17.2983 16.2792 16.5248C17.7539 15.5267 18.7846 14.0907 19.9335 12.7748C20.7483 11.8358 21.614 10.9416 22.7853 10.4242C26.2013 8.88633 30.6134 10.6014 32.0535 14.0683C32.8357 15.9504 32.8276 17.8305 31.5117 19.4865C30.2366 21.0916 28.4827 21.4969 26.517 21.1629C25.0524 20.9123 23.8527 20.1444 22.7262 19.2237C22.5225 19.0628 22.3188 18.908 22.1008 18.7308L22.0153 18.8978C21.5233 19.9214 20.9519 20.9048 20.3063 21.8391C20.3166 21.8575 20.3282 21.8752 20.3409 21.8921C20.4169 21.9916 20.5014 22.0842 20.5935 22.1691C20.6648 22.2384 20.7361 22.3076 20.8114 22.3728C20.8868 22.438 20.9622 22.493 21.0396 22.548C21.1903 22.66 21.3451 22.768 21.502 22.8739C21.6588 22.9798 21.8136 23.0776 21.9725 23.1815C22.1314 23.2853 22.2923 23.3852 22.4553 23.4687C22.6182 23.5522 22.7812 23.65 22.9462 23.7355C23.1112 23.8211 23.2803 23.9005 23.4493 23.9759C23.6184 24.0512 23.7915 24.1266 23.9626 24.1938C24.1337 24.261 24.313 24.3262 24.4882 24.3853C24.6634 24.4444 24.8447 24.4993 25.0259 24.5503C25.2072 24.6012 25.3906 24.644 25.5739 24.6847C27.8675 25.1838 30.1388 25.0636 32.243 23.9412C36.0908 21.8717 37.586 17.5229 35.8851 13.4735Z" fill="black"/>
<path d="M64.8002 24.1025C64.6107 24.1494 64.3357 24.2085 63.9711 24.2797C63.5822 24.3519 63.1873 24.3874 62.7917 24.3857C61.9443 24.3857 61.3292 24.2329 60.9401 23.9274C60.551 23.6218 60.3596 23.082 60.3596 22.2978V13.1337C60.3596 12.1954 60.1009 11.5164 59.5835 11.0968C59.0661 10.6772 58.3871 10.4653 57.5465 10.4613C56.9846 10.4609 56.4278 10.5687 55.9067 10.779C55.3979 10.9789 54.9273 11.2648 54.5154 11.6243C54.5849 11.9491 54.6204 12.2802 54.6214 12.6123V24.1005C54.4319 24.1474 54.1569 24.2064 53.7923 24.2777C53.4027 24.35 53.0071 24.3855 52.6109 24.3836C51.7648 24.3836 51.1483 24.2309 50.7613 23.9253C50.3743 23.6198 50.1808 23.0766 50.1808 22.2958V13.1337C50.1808 12.1954 49.9092 11.5164 49.366 11.0968C48.7653 10.6543 48.0316 10.4301 47.2862 10.4613C46.7302 10.4547 46.1778 10.5507 45.6566 10.7444C45.2312 10.9003 44.8185 11.089 44.4222 11.3086V24.1005C44.2185 24.1474 43.9293 24.2064 43.5769 24.2777C43.182 24.3515 42.7808 24.387 42.3791 24.3836C41.5562 24.3836 40.9451 24.2309 40.5458 23.9253C40.1466 23.6198 39.947 23.0766 39.947 22.2958V10.9929C39.9295 10.516 40.052 10.0444 40.2993 9.63631C40.5888 9.2188 40.9603 8.86463 41.3912 8.59543C42.2199 8.07036 43.1229 7.6728 44.0698 7.41606C45.1574 7.09738 46.2853 6.93686 47.4186 6.93942C49.5561 6.93942 51.295 7.51519 52.6353 8.66673C53.3573 8.15211 54.1452 7.73693 54.9778 7.43236C55.9799 7.08434 57.0359 6.91742 58.0965 6.93942C58.9773 6.93477 59.8549 7.04779 60.7058 7.27551C61.4853 7.47686 62.2125 7.8429 62.8386 8.34897C63.4513 8.86093 63.939 9.50607 64.2645 10.2352C64.6368 11.0965 64.8175 12.0286 64.7941 12.9667L64.8002 24.1025Z" fill="black"/>
<path d="M73.7522 24.1088C73.5485 24.1557 73.2572 24.2147 72.9048 24.286C72.5099 24.3598 72.1088 24.3953 71.7071 24.3919C70.8841 24.3919 70.2731 24.2392 69.8738 23.9336C69.4746 23.6281 69.2749 23.0849 69.2749 22.3041V11.1397C69.2568 10.5921 69.4044 10.0518 69.6986 9.58962C70.0219 9.12783 70.4426 8.74262 70.931 8.46117C71.7724 7.96856 72.6808 7.60078 73.628 7.36937C74.7591 7.07927 75.9231 6.93687 77.0908 6.9457C79.3234 6.9457 80.4396 7.63892 80.4396 9.02539C80.4414 9.34391 80.3876 9.6603 80.2807 9.96034C80.1942 10.2115 80.0823 10.4531 79.9467 10.6814C79.2843 10.5538 78.6106 10.4951 77.9362 10.5062C77.1527 10.5016 76.3718 10.596 75.612 10.7873C74.9628 10.9448 74.3355 11.1815 73.7441 11.4921L73.7522 24.1088Z" fill="black"/>
<path d="M88.4362 20.58C88.8945 20.9099 89.5341 21.0729 90.3571 21.0729C90.7685 21.0722 91.1785 21.0251 91.5793 20.9324C91.959 20.8479 92.3305 20.73 92.6894 20.58C92.8851 20.7805 93.0456 21.0125 93.164 21.2664C93.302 21.5586 93.3716 21.8783 93.3677 22.2014C93.3681 22.5484 93.2812 22.89 93.115 23.1947C92.9487 23.4994 92.7085 23.7574 92.4165 23.945C91.7823 24.404 90.7604 24.6334 89.3508 24.6334C87.4931 24.6334 86.0305 24.2166 84.9632 23.3828C83.8958 22.549 83.356 21.17 83.3438 19.2458V3.06445C83.5312 3.0176 83.8061 2.95853 84.1708 2.88724C84.5604 2.81494 84.9559 2.77948 85.3522 2.78132C86.167 2.78132 86.7781 2.93612 87.1672 3.23963C87.5562 3.54313 87.7477 4.08699 87.7477 4.86917V7.7942H92.9298C93.0653 8.02733 93.1714 8.27637 93.2455 8.53563C93.342 8.85529 93.3901 9.18761 93.3881 9.52151C93.3881 10.1326 93.2455 10.5787 92.9644 10.8618C92.8148 11.005 92.6376 11.1162 92.4436 11.1887C92.2495 11.2612 92.0428 11.2934 91.8359 11.2834H87.7497V18.9667C87.7497 19.7102 87.9779 20.252 88.4362 20.58Z" fill="black"/>
<path d="M107.042 11.1706C106.467 10.7021 105.686 10.4672 104.699 10.4659C104.062 10.4601 103.427 10.5438 102.813 10.7144C102.287 10.856 101.783 11.0691 101.316 11.3479V24.1051C101.112 24.152 100.821 24.211 100.468 24.2823C100.073 24.3561 99.6722 24.3916 99.2704 24.3882C98.4475 24.3882 97.8364 24.2355 97.4371 23.9299C97.0379 23.6244 96.8383 23.0812 96.8383 22.3004V10.9955C96.8172 10.5124 96.9398 10.0339 97.1907 9.62054C97.4853 9.2129 97.8569 8.8669 98.2845 8.60208C99.1189 8.06425 100.035 7.66592 100.998 7.42271C102.215 7.09328 103.472 6.93289 104.734 6.94606C107.154 6.94606 109.028 7.48041 110.356 8.54912C111.684 9.61783 112.347 11.1863 112.346 13.2544V24.1092C112.158 24.156 111.881 24.2151 111.519 24.2864C111.129 24.3587 110.734 24.3942 110.337 24.3923C109.491 24.3923 108.875 24.2396 108.488 23.934C108.101 23.6285 107.909 23.0846 107.913 22.3024V13.3909C107.913 12.3819 107.623 11.6418 107.042 11.1706Z" fill="black"/>
<path d="M116.641 2.46867C116.636 2.14371 116.697 1.82111 116.822 1.52085C116.946 1.22058 117.131 0.949035 117.364 0.723023C117.607 0.483173 117.897 0.295493 118.215 0.171497C118.533 0.0475005 118.873 -0.0101921 119.214 0.00195621C119.553 -0.011609 119.891 0.0454923 120.207 0.169632C120.522 0.293772 120.808 0.482229 121.047 0.723023C121.276 0.951634 121.457 1.22402 121.578 1.52393C121.7 1.82384 121.76 2.14515 121.754 2.46867C121.762 2.80264 121.702 3.13473 121.576 3.44441C121.451 3.7541 121.264 4.03481 121.026 4.26922C120.788 4.50362 120.504 4.68674 120.192 4.80728C119.881 4.92781 119.548 4.9832 119.214 4.97002C118.873 4.98226 118.532 4.92441 118.214 4.80004C117.896 4.67567 117.607 4.48741 117.364 4.2469C117.128 4.01586 116.943 3.7388 116.818 3.4329C116.694 3.127 116.634 2.7988 116.641 2.46867ZM116.994 7.57932C117.181 7.53247 117.458 7.4734 117.821 7.40211C118.21 7.32885 118.606 7.29338 119.002 7.29618C119.847 7.29618 120.464 7.44895 120.854 7.75449C121.244 8.06003 121.437 8.60321 121.434 9.38403V24.1151C121.245 24.1619 120.97 24.221 120.605 24.2923C120.216 24.3645 119.821 24.3999 119.426 24.3982C118.578 24.3982 117.963 24.2454 117.574 23.9399C117.185 23.6344 116.994 23.0946 116.994 22.3104V7.57932Z" fill="black"/>
<path d="M134.69 10.5061C134.022 10.5 133.358 10.6195 132.734 10.8585C132.15 11.0823 131.621 11.4297 131.184 11.8769C130.73 12.3544 130.376 12.9183 130.143 13.535C129.872 14.2672 129.741 15.0438 129.756 15.8245C129.756 17.564 130.214 18.8745 131.131 19.7558C132.048 20.6371 133.234 21.0798 134.69 21.0838C135.415 21.1004 136.137 20.9872 136.822 20.7498C137.374 20.5479 137.911 20.3063 138.428 20.0267C138.74 20.2468 139.009 20.5231 139.22 20.8414C139.422 21.1564 139.527 21.5243 139.519 21.8986C139.519 22.6984 139.05 23.3564 138.11 23.8724C137.17 24.3884 135.901 24.6471 134.303 24.6485C133.054 24.6613 131.811 24.4771 130.62 24.1026C129.553 23.7666 128.573 23.2014 127.748 22.4465C126.929 21.6764 126.296 20.7297 125.898 19.6784C125.44 18.4504 125.218 17.147 125.244 15.8367C125.217 14.5043 125.457 13.18 125.951 11.9421C126.381 10.8812 127.038 9.92733 127.876 9.14747C128.696 8.4032 129.662 7.83905 130.714 7.49145C131.83 7.12205 133 6.93765 134.176 6.94556C135.752 6.94556 137.008 7.22189 137.947 7.77457C138.885 8.32726 139.356 9.00623 139.358 9.8115C139.361 10.1733 139.256 10.5277 139.057 10.83C138.876 11.1171 138.643 11.3684 138.371 11.5714C137.864 11.2962 137.34 11.0546 136.802 10.8483C136.125 10.6053 135.409 10.4893 134.69 10.5061Z" fill="black"/>
<path d="M149.631 6.94531C151.94 6.94531 153.779 7.43892 155.147 8.42615C156.516 9.41338 157.203 10.9404 157.207 13.0072V21.1549C157.233 21.6376 157.082 22.1133 156.783 22.4931C156.479 22.8405 156.122 23.1381 155.726 23.3751C154.947 23.8217 154.102 24.1427 153.223 24.3264C152.085 24.5747 150.924 24.693 149.76 24.6788C147.409 24.6788 145.559 24.2266 144.209 23.3222C142.859 22.4178 142.18 21.0598 142.172 19.2483C142.172 17.6731 142.671 16.4686 143.669 15.6348C144.667 14.801 146.124 14.2898 148.04 14.101L152.868 13.606V12.9726C152.868 12.0804 152.546 11.4225 151.901 10.9988C151.255 10.5751 150.345 10.3633 149.169 10.3633C148.268 10.3607 147.37 10.4723 146.496 10.6953C145.696 10.8954 144.916 11.1738 144.17 11.5264C143.899 11.3253 143.677 11.0665 143.518 10.7686C143.341 10.4513 143.25 10.0932 143.254 9.72979C143.234 9.32164 143.352 8.91873 143.588 8.58503C143.879 8.24026 144.248 7.96826 144.663 7.79063C145.412 7.49055 146.192 7.27798 146.989 7.15715C147.863 7.01585 148.746 6.94501 149.631 6.94531ZM149.774 21.2893C150.402 21.2922 151.029 21.2239 151.642 21.0856C152.08 21.008 152.498 20.8461 152.874 20.609V16.6981L149.466 17.026C148.528 17.1197 147.812 17.3234 147.317 17.6371C146.823 17.9508 146.576 18.4505 146.576 19.1363C146.562 19.4424 146.624 19.7473 146.756 20.0238C146.888 20.3002 147.086 20.5398 147.334 20.721C147.832 21.0985 148.645 21.2873 149.774 21.2873V21.2893Z" fill="black"/>
<path d="M160.032 22.6945C160.017 22.1689 160.206 21.658 160.56 21.2686C160.745 21.0729 160.972 20.9198 161.222 20.8199C161.473 20.7201 161.742 20.6758 162.012 20.6901C162.277 20.6775 162.542 20.7227 162.789 20.8225C163.035 20.9224 163.256 21.0746 163.438 21.2686C163.791 21.658 163.98 22.1689 163.965 22.6945C163.978 23.2123 163.789 23.7148 163.438 24.0959C163.256 24.2899 163.035 24.4421 162.789 24.542C162.542 24.6418 162.277 24.687 162.012 24.6744C161.742 24.6887 161.473 24.6444 161.222 24.5446C160.972 24.4447 160.745 24.2916 160.56 24.0959C160.21 23.7142 160.021 23.2122 160.032 22.6945Z" fill="#0A85C2"/>
<path d="M171.665 15.0138C171.209 15.01 170.756 15.0915 170.331 15.2541C169.933 15.4087 169.572 15.6462 169.273 15.9508C168.964 16.2756 168.724 16.6594 168.567 17.0792C168.381 17.5787 168.291 18.1087 168.302 18.6415C168.302 19.8257 168.614 20.7178 169.239 21.318C169.863 21.9183 170.672 22.2184 171.665 22.2184C172.159 22.2294 172.651 22.1521 173.117 21.9902C173.493 21.8534 173.858 21.6893 174.209 21.4993C174.423 21.6472 174.607 21.8346 174.751 22.0513C174.888 22.2665 174.959 22.5173 174.955 22.7724C174.955 23.3156 174.634 23.7637 173.993 24.1168C173.352 24.4698 172.488 24.6457 171.4 24.6443C170.549 24.6533 169.702 24.5282 168.89 24.2736C168.163 24.0448 167.495 23.6589 166.933 23.1431C166.374 22.6197 165.943 21.9751 165.672 21.259C165.361 20.4222 165.21 19.5342 165.228 18.6415C165.21 17.7358 165.372 16.8355 165.707 15.9935C165.992 15.282 166.43 14.642 166.991 14.1189C167.551 13.5957 168.22 13.2024 168.95 12.9667C169.709 12.7146 170.504 12.5887 171.304 12.5939C172.376 12.5939 173.232 12.782 173.873 13.1581C174.514 13.5343 174.834 13.9946 174.834 14.5392C174.837 14.7864 174.766 15.0287 174.631 15.2358C174.506 15.4309 174.347 15.602 174.162 15.7409C173.817 15.5528 173.46 15.3881 173.093 15.248C172.635 15.0826 172.151 15.0032 171.665 15.0138Z" fill="#0A85C2"/>
<path d="M188.278 18.6149C188.291 19.4698 188.148 20.3199 187.859 21.1244C187.599 21.8361 187.194 22.486 186.669 23.033C186.15 23.5707 185.518 23.9879 184.82 24.2551C183.251 24.8146 181.537 24.8146 179.968 24.2551C179.273 23.9906 178.642 23.5809 178.118 23.0534C177.593 22.5121 177.188 21.8658 176.93 21.157C176.638 20.3448 176.495 19.4862 176.509 18.623C176.496 17.7679 176.639 16.9176 176.93 16.1135C177.189 15.4018 177.598 14.7543 178.13 14.2151C178.66 13.6893 179.294 13.28 179.992 13.0133C181.544 12.4539 183.243 12.4539 184.795 13.0133C185.496 13.2824 186.131 13.6992 186.657 14.2355C187.188 14.7797 187.597 15.4302 187.859 16.1441C188.145 16.936 188.287 17.7728 188.278 18.6149ZM182.394 14.9871C182.003 14.9721 181.615 15.0503 181.26 15.2154C180.906 15.3805 180.596 15.6276 180.357 15.9363C179.86 16.5691 179.612 17.462 179.613 18.6149C179.614 19.7678 179.858 20.664 180.344 21.3036C180.6 21.5987 180.916 21.8351 181.271 21.9968C181.626 22.1585 182.011 22.2416 182.401 22.2405C182.792 22.2393 183.177 22.1539 183.531 21.9901C183.885 21.8263 184.2 21.588 184.453 21.2914C184.941 20.66 185.184 19.7678 185.184 18.6149C185.184 17.462 184.936 16.5691 184.441 15.9363C184.2 15.6262 183.889 15.3781 183.533 15.213C183.176 15.0479 182.786 14.9704 182.394 14.9871Z" fill="#0A85C2"/>
<path d="M207.688 24.2864C207.559 24.3169 207.37 24.3577 207.121 24.4045C206.853 24.4557 206.58 24.4802 206.307 24.4779C205.731 24.4779 205.31 24.374 205.046 24.1662C204.781 23.9584 204.649 23.5897 204.65 23.0601V16.8149C204.65 16.1754 204.474 15.7116 204.121 15.4237C203.722 15.119 203.229 14.9653 202.728 14.9899C202.345 14.9904 201.966 15.0637 201.611 15.2058C201.264 15.3422 200.943 15.5372 200.662 15.7822C200.71 16.003 200.735 16.2284 200.735 16.4544V24.2864C200.607 24.3169 200.418 24.3577 200.171 24.4045C199.903 24.4556 199.63 24.4802 199.356 24.4779C198.78 24.4779 198.358 24.374 198.095 24.1662C197.833 23.9584 197.698 23.5897 197.698 23.0601V16.8149C197.698 16.1754 197.514 15.7116 197.146 15.4237C196.735 15.1197 196.231 14.9665 195.72 14.9899C195.344 14.9861 194.969 15.0517 194.616 15.1834C194.327 15.2896 194.045 15.4176 193.775 15.5663V24.2864C193.63 24.3169 193.439 24.3577 193.199 24.4045C192.93 24.4559 192.657 24.4805 192.384 24.4779C191.824 24.4779 191.408 24.374 191.135 24.1662C190.862 23.9625 190.728 23.5897 190.728 23.0601V15.3504C190.716 15.0253 190.799 14.7038 190.968 14.4256C191.165 14.1413 191.418 13.9001 191.712 13.7168C192.278 13.3548 192.896 13.0802 193.545 12.902C194.286 12.6855 195.054 12.5765 195.826 12.5781C197.285 12.5781 198.47 12.9706 199.381 13.7555C199.881 13.409 200.427 13.1322 201.002 12.9326C201.685 12.6948 202.404 12.581 203.127 12.5965C203.727 12.594 204.325 12.6707 204.905 12.8246C205.436 12.9624 205.931 13.2124 206.357 13.5579C206.775 13.9067 207.108 14.3463 207.331 14.8432C207.584 15.4299 207.707 16.0643 207.692 16.7029L207.688 24.2864Z" fill="#0A85C2"/>
</svg>
