<svg width="88" height="88" viewBox="0 0 88 88" fill="none" xmlns="http://www.w3.org/2000/svg">
<g clip-path="url(#clip0_9053_54454)">
<path d="M6.81633 22L5.02333 14.6667H82.962L81.1617 22H6.81633ZM12.6133 7.33333L11.0037 0H76.9817L75.372 7.33333H12.6133ZM88 66H0L7.33333 88H80.6667L88 66ZM11.3813 58.6667L8.39667 36.6667H79.5703L76.494 58.6667H83.9007L88 29.3333H0L3.97833 58.6667H11.3813ZM21.5893 44.0183C21.4097 41.9833 23.1257 40.3333 25.4137 40.3333C27.7053 40.3333 29.6487 41.9797 29.7587 44.0147C29.8687 46.0497 28.1527 47.6997 25.9307 47.6997C23.7123 47.6997 21.7653 46.0533 21.5893 44.0183ZM49.3643 43.197L42.6763 53.0237L36.0287 48.213L25.6667 58.6667H62.3333L49.3643 43.197Z" fill="black"/>
</g>
<defs>
<clipPath id="clip0_9053_54454">
<rect width="88" height="88" fill="white"/>
</clipPath>
</defs>
</svg>
