<svg width="14" height="13" viewBox="0 0 14 13" fill="none" xmlns="http://www.w3.org/2000/svg">
<path d="M1.54632 7.55469H6.14174V12.1501C6.14174 12.6172 6.52595 13.0089 7.00056 13.0089C7.47517 13.0089 7.85937 12.6172 7.85937 12.1501V7.55469H12.4548C12.9219 7.55469 13.3136 7.17048 13.3136 6.69587C13.3136 6.22126 12.9219 5.83705 12.4548 5.83705H7.85937V1.24163C7.85937 0.774554 7.47517 0.382812 7.00056 0.382812C6.52595 0.382812 6.14174 0.774554 6.14174 1.24163V5.83705H1.54632C1.07924 5.83705 0.6875 6.22126 0.6875 6.69587C0.6875 7.17048 1.07924 7.55469 1.54632 7.55469Z" fill="#3C3E41"/>
</svg>
