<svg width="89" height="88" viewBox="0 0 89 88" fill="none" xmlns="http://www.w3.org/2000/svg">
<path d="M40.9193 29.3333H37.2526V22H40.9193V25.6667H48.2526V29.3333H44.5859V33H40.9193V29.3333ZM48.2526 73.3333V69.6667H44.5859V73.3333H48.2526ZM44.5859 18.3333V14.6667H37.2526V18.3333H40.9193V22H44.5859V18.3333ZM73.9193 14.6667V36.6667H70.2526V33H55.5859V14.6667H73.9193ZM70.2526 29.3333V18.3333H59.2526V29.3333H70.2526ZM18.9193 36.6667H15.2526V40.3333H22.5859V36.6667H18.9193ZM18.9193 47.6667H22.5859V51.3333H26.2526V40.3333H22.5859V44H15.2526V51.3333H18.9193V47.6667ZM37.2526 51.3333V58.6667H40.9193V51.3333H37.2526ZM51.9193 14.6667H48.2526V25.6667H51.9193V14.6667ZM51.9193 33V29.3333H48.2526V33H51.9193ZM62.9193 25.6667H66.5859V22H62.9193V25.6667ZM26.2526 22H22.5859V25.6667H26.2526V22ZM33.5859 14.6667V33H15.2526V14.6667H33.5859ZM29.9193 18.3333H18.9193V29.3333H29.9193V18.3333ZM62.9193 36.6667V40.3333H59.2526V36.6667H51.9193V40.3333H48.2526V36.6667H37.2526V33H33.5859V36.6667H29.9193V40.3333H33.5859V47.6667H37.2526V44H40.9193V51.3333H44.5859V44H55.5859V47.6667H48.2526V51.3333H55.5859V55H59.2526V44H62.9193V47.6667H66.5859V55H70.2526V51.3333H73.9193V47.6667H70.2526V44H66.5859V40.3333H70.2526V36.6667H62.9193ZM22.5859 66H26.2526V62.3333H22.5859V66ZM15.2526 55H33.5859V73.3333H15.2526V55ZM18.9193 69.6667H29.9193V58.6667H18.9193V69.6667ZM62.9193 58.6667V55H59.2526V58.6667H62.9193ZM62.9193 62.3333H59.2526V66H55.5859V62.3333H51.9193V58.6667H55.5859V55H48.2526V51.3333H44.5859V58.6667H40.9193V62.3333H37.2526V73.3333H40.9193V69.6667H44.5859V66H51.9193V73.3333H55.5859V69.6667H59.2526V73.3333H66.5859V69.6667H70.2526V66H62.9193V62.3333ZM29.9193 51.3333H33.5859V47.6667H29.9193V51.3333ZM66.5859 58.6667V62.3333H70.2526V66H73.9193V55H70.2526V58.6667H66.5859ZM73.9193 73.3333V69.6667H70.2526V73.3333H73.9193ZM73.9193 44V40.3333H70.2526V44H73.9193ZM66.5859 7.33333H81.2526V22H88.5859V0H66.5859V7.33333ZM7.91927 22V7.33333H22.5859V0H0.585938V22H7.91927ZM22.5859 80.6667H7.91927V66H0.585938V88H22.5859V80.6667ZM81.2526 66V80.6667H66.5859V88H88.5859V66H81.2526Z" fill="black"/>
</svg>
