<svg width="18" height="18" viewBox="0 0 18 18" fill="none" xmlns="http://www.w3.org/2000/svg">
<path d="M18 3.41925C17.3377 3.71325 16.626 3.91125 15.879 4.0005C16.6418 3.54375 17.2275 2.82 17.5028 1.9575C16.7895 2.3805 15.999 2.688 15.1575 2.85375C14.4847 2.136 13.524 1.6875 12.462 1.6875C10.0777 1.6875 8.32575 3.912 8.86425 6.22125C5.796 6.0675 3.075 4.5975 1.25325 2.36325C0.28575 4.023 0.7515 6.19425 2.3955 7.29375C1.791 7.27425 1.221 7.1085 0.72375 6.83175C0.68325 8.5425 1.9095 10.143 3.6855 10.4992C3.16575 10.6402 2.5965 10.6733 2.0175 10.5623C2.487 12.0293 3.8505 13.0965 5.4675 13.1265C3.915 14.3438 1.959 14.8875 0 14.6565C1.63425 15.7043 3.576 16.3155 5.661 16.3155C12.5175 16.3155 16.3912 10.5247 16.1572 5.331C16.8787 4.80975 17.505 4.1595 18 3.41925Z" fill="#1860A3"/>
</svg>
