<svg width="48" height="48" viewBox="0 0 48 48" fill="none" xmlns="http://www.w3.org/2000/svg">
<path d="M20.6985 24L14.0988 17.4003L17.3987 14.1005L23.9983 20.7002L30.598 14.1005L33.8978 17.4003L27.2981 24L33.8978 30.5997L30.598 33.8995L23.9983 27.2998L17.3987 33.8995L14.0988 30.5997L20.6985 24ZM40.4975 40.4992C31.3852 49.6114 16.6113 49.6113 7.49916 40.4992C-1.61308 31.3869 -1.61308 16.6131 7.49916 7.50084C16.6113 -1.61131 31.3852 -1.61139 40.4975 7.50084C49.6096 16.613 49.6096 31.387 40.4975 40.4992ZM37.1976 37.1993C44.4875 29.9095 44.4875 18.0905 37.1976 10.8007C29.9079 3.51088 18.0888 3.51085 10.799 10.8007C3.5092 18.0905 3.5092 29.9095 10.799 37.1993C18.0888 44.4891 29.9079 44.4891 37.1976 37.1993Z" fill="#3C3E41" stroke="#C9D2E7" stroke-width="0.4"/>
</svg>
