<svg width="24" height="22" viewBox="0 0 24 22" fill="none" xmlns="http://www.w3.org/2000/svg">
<g clip-path="url(#clip0_8086_39478)">
<g clip-path="url(#clip1_8086_39478)">
<path d="M10.0833 21H1.83333V10H10.0833V21ZM10.0833 4.5H0V8.16667H10.0833V4.5ZM11.9167 21H20.1667V10H11.9167V21ZM11.9167 4.5V8.16667H22V4.5H11.9167ZM15.9216 -1C13.2202 -1 11.6398 2.18725 11 3.58333H15.8996C19.1015 3.58333 19.1354 -1 15.9216 -1ZM15.1919 2.31925H13.3192C13.9966 1.29167 14.6383 0.517083 15.466 0.517083C16.5403 0.517083 16.5917 2.31925 15.1919 2.31925ZM6.10042 3.58333H11C10.3602 2.18725 8.77983 -1 6.07842 -1C2.86458 -1 2.8985 3.58333 6.10042 3.58333ZM6.534 0.517083C7.36175 0.517083 8.00342 1.29167 8.68083 2.31925H6.80808C5.40833 2.31925 5.45967 0.517083 6.534 0.517083Z" fill="white" fill-opacity="0.8"/>
</g>
</g>
<defs>
<clipPath id="clip0_8086_39478">
<rect width="24" height="22" fill="white"/>
</clipPath>
<clipPath id="clip1_8086_39478">
<rect width="22" height="22" fill="white" transform="translate(0 -1)"/>
</clipPath>
</defs>
</svg>
