<svg width="24" height="22" viewBox="0 0 24 22" fill="none" xmlns="http://www.w3.org/2000/svg">
<path d="M18.513 6.52575C19.471 5.478 20 4.1635 20 2.82608V0H4V2.82608C4 4.1635 4.528 5.47708 5.487 6.52483L8.574 9.89817C9.14 10.5188 9.144 11.3878 8.583 12.012L5.453 15.4898C4.516 16.5312 4 17.8319 4 19.1519V22H20V19.1519C20 17.8319 19.483 16.5321 18.547 15.4908L15.417 12.0129C14.855 11.3887 14.859 10.5197 15.426 9.89908L18.513 6.52575ZM18 2.74908C18 3.75833 17.637 4.62825 16.98 5.34692L16.002 6.41667H7.998L7.02 5.34692C6.36 4.62733 6 3.75558 6 2.74908H18ZM17.004 16.6567C17.656 17.3818 18 18.238 18 19.25H16.939C15 17.4167 12 17.4167 12 17.4167C12 17.4167 9 17.4167 7.061 19.25H6C6 18.238 6.344 17.3809 6.996 16.6567L10.125 13.1798C10.467 12.7994 10.696 12.3677 10.836 11.9176H11V12.8343H13V11.9176H13.163C13.304 12.3677 13.532 12.7994 13.874 13.1789L17.004 16.6567ZM11 15.5833H13V16.5H11V15.5833ZM11 13.75H13V14.6667H11V13.75Z" fill="white" fill-opacity="0.8"/>
</svg>
